<svg width="32" height="32" viewBox="0 0 32 32" fill="none" xmlns="http://www.w3.org/2000/svg">
<g filter="url(#filter0_d_5794_7755)">
<path d="M29.1769 13.6296C29.8796 14.655 29.6179 16.056 28.5925 16.7587L11.1263 28.7274C10.1008 29.4301 8.69987 29.1684 7.99717 28.143L2.27075 19.7863C1.56806 18.7609 1.82971 17.3599 2.85516 16.6572L20.3214 4.68849C21.3468 3.9858 22.7478 4.24745 23.4505 5.2729L29.1769 13.6296Z" fill="url(#paint0_linear_5794_7755)"/>
<path d="M20.6878 4.57851C21.9637 4.94829 22.6983 6.28239 22.3285 7.55831L16.6139 27.277C16.2441 28.553 14.91 29.2875 13.6341 28.9178L3.59846 26.0093C2.32253 25.6396 1.58795 24.3055 1.95773 23.0295L7.67238 3.31083C8.04216 2.03491 9.37626 1.30033 10.6522 1.67011L20.6878 4.57851Z" fill="url(#paint1_linear_5794_7755)"/>
<path d="M7.95167 7.47656H10.8937L7.57879 24.7044H4.63672L7.95167 7.47656Z" fill="url(#paint2_linear_5794_7755)"/>
<path d="M15.1836 7.47852H22.8007V9.84103H15.1836V7.47852Z" fill="#DADADA"/>
<path d="M15.2031 7.47656H18.8784L8.31199 24.7044H4.63672L15.2031 7.47656Z" fill="white"/>
<path d="M20.9844 7.51562H24.6596L20.3164 14.3821H16.6875L20.9844 7.51562Z" fill="white"/>
<path d="M20.3293 14.3633H16.6978L20.9978 24.7095H24.6758L20.3293 14.3633Z" fill="white"/>
<path d="M16.2667 20.748H12.5888L14.3572 24.7084H18.0352L16.2667 20.748Z" fill="white"/>
<path d="M13.4355 22.3457H22.8041L23.741 24.7082H14.3724L13.4355 22.3457Z" fill="white"/>
</g>
<defs>
<filter id="filter0_d_5794_7755" x="0.0675616" y="0.286959" width="31.316" height="30.8649" filterUnits="userSpaceOnUse" color-interpolation-filters="sRGB">
<feFlood flood-opacity="0" result="BackgroundImageFix"/>
<feColorMatrix in="SourceAlpha" type="matrix" values="0 0 0 0 0 0 0 0 0 0 0 0 0 0 0 0 0 0 127 0" result="hardAlpha"/>
<feOffset dy="0.219397"/>
<feGaussianBlur stdDeviation="0.466219"/>
<feComposite in2="hardAlpha" operator="out"/>
<feColorMatrix type="matrix" values="0 0 0 0 0.467269 0 0 0 0 0.45053 0 0 0 0 0.45053 0 0 0 0.25 0"/>
<feBlend mode="normal" in2="BackgroundImageFix" result="effect1_dropShadow_5794_7755"/>
<feBlend mode="normal" in="SourceGraphic" in2="effect1_dropShadow_5794_7755" result="shape"/>
</filter>
<linearGradient id="paint0_linear_5794_7755" x1="27.5349" y1="11.0521" x2="5.42174" y2="26.2051" gradientUnits="userSpaceOnUse">
<stop stop-color="#F600EC"/>
<stop offset="1" stop-color="#A501DF" stop-opacity="0.69"/>
</linearGradient>
<linearGradient id="paint1_linear_5794_7755" x1="15.8395" y1="2.8783" x2="9.34982" y2="27.8685" gradientUnits="userSpaceOnUse">
<stop stop-color="#2F42FF"/>
<stop offset="1" stop-color="#000B7B" stop-opacity="0.68"/>
</linearGradient>
<linearGradient id="paint2_linear_5794_7755" x1="9.1892" y1="7.47665" x2="6.19991" y2="24.6993" gradientUnits="userSpaceOnUse">
<stop stop-color="#F9F9F9"/>
<stop offset="1" stop-color="#CDCDCD"/>
</linearGradient>
</defs>
</svg>
