<svg width="20" height="19" viewBox="0 0 20 19" fill="none" xmlns="http://www.w3.org/2000/svg">
<g id="Frame" clip-path="url(#clip0_3552_4933)">
<path id="Vector" d="M11.4337 9.51104L19.0155 2.30855C19.3983 1.94486 19.3983 1.3456 19.0155 0.981908L18.9741 0.942565C18.5912 0.578878 17.9604 0.578878 17.5776 0.942565L9.99578 8.15513L2.41422 0.942565C2.03139 0.578878 1.40058 0.578878 1.01775 0.942565L0.976338 0.981908C0.583408 1.3456 0.583408 1.94486 0.976338 2.30855L8.55816 9.51128L0.976338 16.7138C0.593762 17.0775 0.593762 17.6767 0.976338 18.0404L1.01775 18.0798C1.40058 18.4434 2.03139 18.4434 2.41422 18.0798L9.99578 10.877L17.5776 18.0795C17.9604 18.4432 18.5912 18.4432 18.9741 18.0795L19.0155 18.0402C19.3983 17.6765 19.3983 17.0772 19.0155 16.7135L11.4337 9.51104Z" fill="url(#paint0_linear_3552_4933)"/>
</g>
<defs>
<linearGradient id="paint0_linear_3552_4933" x1="9.99212" y1="0.6698" x2="9.99212" y2="18.3525" gradientUnits="userSpaceOnUse">
<stop stop-color="#8B91C7"/>
<stop offset="1" stop-color="#6395E7"/>
</linearGradient>
<clipPath id="clip0_3552_4933">
<rect width="20" height="19" fill="white"/>
</clipPath>
</defs>
</svg>
