<svg width="23" height="24" viewBox="0 0 23 24" fill="none" xmlns="http://www.w3.org/2000/svg">
<g clip-path="url(#clip0_743_3217)">
<path fill-rule="evenodd" clip-rule="evenodd" d="M6.22068 20.5045C11.2835 22.4486 17.3578 19.5865 19.7881 14.1118C20.9534 11.4868 21.0693 8.73776 20.3161 6.37285C22.022 9.03255 22.3277 12.6521 20.8162 16.057C18.455 21.3761 12.5533 24.1569 7.63429 22.268C5.81449 21.5692 4.38415 20.3292 3.42373 18.7747C4.21557 19.5035 5.153 20.0945 6.22068 20.5045Z" fill="url(#paint0_linear_743_3217)"/>
<path fill-rule="evenodd" clip-rule="evenodd" d="M7.46989 19.7609C11.6238 21.2131 16.5792 18.3837 18.538 13.4412C20.4968 8.49878 18.7173 3.31492 14.5633 1.86275C11.6829 0.855781 8.41707 1.90755 6.03226 4.29501L6.88148 4.30557C8.86388 4.33022 10.3629 4.88894 11.2825 5.91608C12.2798 7.05977 12.6222 8.71095 12.3021 10.7895C11.9723 12.9324 11.0648 14.6436 9.66032 15.8152C8.42768 16.8334 6.82119 17.3357 4.90928 17.312L4.22217 17.3034C5.02352 18.4251 6.12164 19.2896 7.46989 19.7609Z" fill="url(#paint1_linear_743_3217)"/>
<path d="M1.34048 7.28008C1.44178 6.66089 1.48742 6.03371 1.47681 5.4062C1.99603 5.42962 2.32008 5.44289 3.40309 5.44073L6.12938 5.43073C7.74045 5.42482 8.96648 5.85973 9.7285 6.68332C10.5553 7.6007 10.8574 8.93953 10.6273 10.6347C10.3903 12.3824 9.67757 13.7864 8.55337 14.758C7.56654 15.6025 6.26851 16.0322 4.71472 16.0379L1.96337 16.0479C0.957347 16.0516 0.59221 16.0638 0.0391627 16.0894C0.203151 15.4787 0.320559 14.8562 0.390354 14.2274L1.34048 7.28008ZM4.78353 13.8116C5.63202 13.8085 6.26135 13.5928 6.79311 13.1316C7.39974 12.5869 7.80299 11.7409 7.94768 10.6807C8.09237 9.62054 7.95334 8.80733 7.51294 8.30986C7.1157 7.86467 6.51885 7.66072 5.57905 7.66236L3.87668 7.66679L3.04178 13.818L4.78353 13.8116Z" fill="#FFFDFD"/>
</g>
<defs>
<linearGradient id="paint0_linear_743_3217" x1="20.7699" y1="6.4879" x2="7.84204" y2="24.3437" gradientUnits="userSpaceOnUse">
<stop stop-color="#CB2BB2"/>
<stop offset="1" stop-color="#015BC4" stop-opacity="0.17"/>
</linearGradient>
<linearGradient id="paint1_linear_743_3217" x1="12.8996" y1="1.50768" x2="7.70079" y2="19.6047" gradientUnits="userSpaceOnUse">
<stop stop-color="#F720AE"/>
<stop offset="0.720587" stop-color="#005AC4"/>
</linearGradient>
<clipPath id="clip0_743_3217">
<rect width="22.5262" height="23.0837" fill="white" transform="translate(0 0.921387)"/>
</clipPath>
</defs>
</svg>
