<svg width="21" height="21" viewBox="0 0 21 21" fill="none" xmlns="http://www.w3.org/2000/svg">
<path fill-rule="evenodd" clip-rule="evenodd" d="M6.10052 16.7051C10.0335 18.2153 14.7522 15.992 16.6401 11.7391C17.5453 9.69989 17.6354 7.56437 17.0503 5.72724C18.3755 7.79338 18.6129 10.6052 17.4388 13.2501C15.6045 17.3822 11.0199 19.5424 7.19865 18.0751C5.78497 17.5322 4.67383 16.569 3.92775 15.3614C4.54288 15.9275 5.27111 16.3866 6.10052 16.7051Z" fill="url(#paint0_linear_442_58)"/>
<path fill-rule="evenodd" clip-rule="evenodd" d="M7.31604 16.1276C10.543 17.2557 14.3925 15.0577 15.9141 11.2183C17.4358 7.37885 16.0534 3.35187 12.8264 2.22377C10.5887 1.44149 8.0516 2.25865 6.19898 4.11349L6.85896 4.1217C8.39895 4.14085 9.56343 4.57488 10.2778 5.3728C11.0525 6.26125 11.3186 7.54394 11.0699 9.15863C10.8137 10.8233 10.1087 12.1526 9.01765 13.0628C8.0601 13.8537 6.81212 14.2439 5.32689 14.2255L4.7933 14.2188C5.4158 15.0901 6.26878 15.7615 7.31604 16.1276Z" fill="url(#paint1_linear_442_58)"/>
<g clip-path="url(#clip0_442_58)">
<path d="M2.59449 6.43208C2.67319 5.95108 2.70864 5.46386 2.7004 4.9764C3.10374 4.99459 3.35548 5.0049 4.19679 5.00322L6.31466 4.99545C7.56619 4.99086 8.51861 5.32871 9.11057 5.9685C9.75286 6.68116 9.98752 7.7212 9.80879 9.03808C9.62465 10.3957 9.07101 11.4864 8.19769 12.2412C7.43109 12.8972 6.42274 13.231 5.21571 13.2354L3.07837 13.2432C2.29686 13.2461 2.01321 13.2556 1.58358 13.2754C1.71098 12.801 1.80218 12.3174 1.8564 11.829L2.59449 6.43208ZM5.26916 11.506C5.9283 11.5036 6.41718 11.336 6.83026 10.9777C7.30152 10.5546 7.61478 9.8974 7.72718 9.07381C7.83958 8.25023 7.73157 7.6185 7.38946 7.23205C7.08086 6.88621 6.61721 6.72778 5.88715 6.72905L4.56469 6.73249L3.91611 11.5109L5.26916 11.506Z" fill="#FFFDFD"/>
</g>
<defs>
<linearGradient id="paint0_linear_442_58" x1="17.4026" y1="5.81659" x2="7.3595" y2="19.6875" gradientUnits="userSpaceOnUse">
<stop stop-color="#CB2BB2"/>
<stop offset="1" stop-color="#015BC4" stop-opacity="0.17"/>
</linearGradient>
<linearGradient id="paint1_linear_442_58" x1="11.5341" y1="1.94795" x2="7.49544" y2="16.0063" gradientUnits="userSpaceOnUse">
<stop stop-color="#F720AE"/>
<stop offset="0.720587" stop-color="#005AC4"/>
</linearGradient>
<clipPath id="clip0_442_58">
<rect width="8.30049" height="8.30049" fill="white" transform="translate(1.55316 4.98059) rotate(-0.210142)"/>
</clipPath>
</defs>
</svg>
