<svg width="69" height="72" viewBox="0 0 69 72" fill="none" xmlns="http://www.w3.org/2000/svg">
<g clip-path="url(#clip0_5849_8492)">
<path d="M0.499999 35.25L34.5 0.250004H67L0.499999 71.25L0.499999 35.25Z" fill="url(#paint0_linear_5849_8492)"/>
<path d="M11.1204 40.3665C11.1895 40.8926 11.2457 41.5347 11.289 42.2926L9.93143 41.6314C9.74019 39.5046 9.09624 37.4711 7.99957 35.5308L9.35933 34.9836C9.87006 35.912 10.2727 36.8668 10.5671 37.8482L17.4935 44.3589L16.4963 45.4198L11.1204 40.3665ZM10.9235 37.2033L12.707 35.3059L12.2576 34.8642L10.3704 33.0903L11.3485 32.0498L13.4702 34.0443L13.6851 34.2654L16.8781 30.8685L17.8982 31.8274L16.0476 33.7962L20.6992 38.1686C20.8692 38.3284 21.0341 38.3233 21.1939 38.1533L21.8172 37.4903C21.8811 37.4222 21.9002 37.2929 21.8745 37.1022C21.8228 36.9255 21.3881 36.4273 20.5704 35.6074L21.7784 34.956C22.7906 36.0868 23.3248 36.813 23.3809 37.1348C23.4115 37.4839 23.2964 37.8176 23.0355 38.136L21.8945 39.3499C21.2808 40.0027 20.6272 40.0031 19.9335 39.3511L15.0983 34.8061L14.6476 35.2855C17.1029 38.029 18.355 40.7238 18.4038 43.37L16.9622 43.5136C16.9296 41.1773 15.832 38.7814 13.6696 36.326L11.9436 38.1621L10.9235 37.2033ZM12.7545 30.7584C13.7903 30.5151 14.7371 30.3867 15.595 30.3734L15.6487 31.788C14.8355 31.7538 13.8711 31.8463 12.7554 32.0657L12.7545 30.7584ZM20.0191 27.711C20.271 28.3833 20.4777 29.09 20.6393 29.8311L19.0282 30.2573C18.7597 28.6215 18.2389 27.152 17.4656 25.8487L18.6969 24.9886C18.9686 25.449 19.2066 25.884 19.4107 26.2937L20.9545 24.6513L19.5468 23.3281L20.5536 22.257L21.9613 23.5803L25.0105 20.3364L26.0408 21.3048L22.9916 24.5487L24.5931 26.0541L28.304 22.1064L29.3342 23.0749L26.8316 25.7373L29.4022 28.1536C29.7966 28.5244 30.1249 28.5704 30.387 28.2915L31.1924 27.4347C31.2755 27.3463 31.3072 27.1967 31.2875 26.986C31.249 26.809 30.7967 26.2749 29.9306 25.3839L31.2159 24.6707C32.2965 25.8786 32.8589 26.6634 32.9031 27.0252C32.9277 27.3942 32.7872 27.7617 32.4816 28.1277L31.1392 29.5558C30.3849 30.3583 29.5317 30.312 28.5796 29.4171L25.8152 26.8186L24.3194 28.4099C25.346 29.5799 25.9625 30.6205 26.169 31.5319C26.4212 32.64 26.2753 34.008 25.7314 35.6359L24.063 35.4895C24.6014 34.1126 24.8034 32.9575 24.6689 32.024C24.5469 31.2817 24.0916 30.4374 23.303 29.4912L20.7907 32.1638L19.7604 31.1954L23.5863 27.1252L21.9848 25.6198L20.0191 27.711ZM29.1814 13.6508L31.7826 16.0959C31.4703 14.752 30.8488 13.444 29.9181 12.1721L31.0191 11.2664C31.336 11.6924 31.6552 12.191 31.9766 12.7621L35.0258 9.51819C38.6233 12.8998 40.8227 15.0569 41.6241 15.9895C42.3715 16.8842 42.352 17.7498 41.5658 18.5862C41.3804 18.7835 40.8967 19.2639 40.1148 20.0276L38.9264 19.3909C39.5997 18.7428 40.1153 18.2283 40.4733 17.8475C40.7737 17.5279 40.7045 17.1041 40.2656 16.5763C39.8007 16.0624 38.0715 14.3794 35.078 11.5271L32.6329 14.1283C32.9629 14.9765 33.1871 15.8213 33.3056 16.6628L32.2722 16.5561L35.7201 19.7971L34.838 20.7356L29.2785 15.5098L27.5813 17.3153L33.1408 22.5411L32.2394 23.5L25.7007 17.3537L29.1814 13.6508ZM36.2505 14.5315C37.2807 14.9618 38.4228 15.491 39.677 16.1191L39.3006 17.3985L38.4343 16.9301C37.9067 17.8047 37.2559 18.7493 36.4817 19.7636L35.3904 19.0645C35.5761 18.6626 34.9137 17.2073 33.4033 14.6988L34.6508 14.0461C35.3937 15.4361 35.9774 16.6957 36.4019 17.8249C36.7443 17.3653 37.0628 16.8833 37.3575 16.379C36.8144 16.1119 36.3253 15.8827 35.8902 15.6915L36.2505 14.5315ZM28.6051 17.4322L29.4297 16.5549L32.7756 19.7C33.8929 20.8143 34.6446 21.8475 35.0306 22.7996C35.3822 23.7065 35.4054 24.6698 35.1001 25.6895L33.6853 25.4163C33.9653 24.4371 33.966 23.6051 33.6873 22.9204C33.3614 22.2042 32.7826 21.4231 31.9509 20.5773L28.6051 17.4322ZM35.0438 20.9867C36.0325 20.9297 36.9804 20.9433 37.8876 21.0275L37.9335 22.5117C37.149 22.3379 36.1926 22.2652 35.0644 22.2935L35.0438 20.9867Z" fill="black"/>
</g>
<defs>
<linearGradient id="paint0_linear_5849_8492" x1="58" y1="-6.74999" x2="-7" y2="64.75" gradientUnits="userSpaceOnUse">
<stop stop-color="#00EBFD"/>
<stop offset="0.338542" stop-color="#E2FF79"/>
<stop offset="0.645833" stop-color="#D981FE"/>
<stop offset="1" stop-color="#FB6FFE"/>
</linearGradient>
<clipPath id="clip0_5849_8492">
<rect width="69" height="72" fill="white"/>
</clipPath>
</defs>
</svg>
