<svg width="692" height="265" viewBox="0 0 692 265" fill="none" xmlns="http://www.w3.org/2000/svg">
<path d="M256.699 115.055C263.101 124.397 260.717 137.159 251.375 143.56L92.2624 252.593C82.9207 258.994 70.1585 256.61 63.7571 247.269L11.5908 171.141C5.18938 161.8 7.57295 149.037 16.9146 142.636L176.028 33.6037C185.369 27.2023 198.132 29.5859 204.533 38.9276L256.699 115.055Z" fill="url(#paint0_linear_5606_26305)"/>
<path d="M179.366 32.5943C190.989 35.9629 197.681 48.1162 194.313 59.7396L142.253 239.372C138.885 250.996 126.732 257.688 115.108 254.319L23.6862 227.824C12.0629 224.456 5.37101 212.302 8.73957 200.679L60.7988 21.0461C64.1673 9.42272 76.3207 2.73084 87.9441 6.0994L179.366 32.5943Z" fill="url(#paint1_linear_5606_26305)"/>
<path d="M63.3184 58.9922H90.12L59.9216 215.934H33.12L63.3184 58.9922Z" fill="url(#paint2_linear_5606_26305)"/>
<path d="M129.227 59.0198H198.616V80.5417H129.227V59.0198Z" fill="#DADADA"/>
<path d="M129.377 58.9922H162.858L66.6008 215.934H33.12L129.377 58.9922Z" fill="white"/>
<path d="M182.066 59.3638H215.547L175.981 121.916H142.922L182.066 59.3638Z" fill="white"/>
<path d="M176.09 121.73H143.007L182.179 215.982H215.685L176.09 121.73Z" fill="white"/>
<path d="M139.092 179.904H105.587L121.696 215.982H155.202L139.092 179.904Z" fill="white"/>
<path d="M113.271 194.46H198.616L207.151 215.982H121.805L113.271 194.46Z" fill="white"/>
<g clip-path="url(#clip0_5606_26305)">
<path d="M390.11 119.08V60.3994H419.445V78.0376H489.128L479.135 101.792H419.445V119.08H497.513L487.52 142.829H420.669V220.197H391.504V142.829H338.415V119.08H390.11ZM458.219 211.288C456.933 207.447 455.389 203.024 453.587 198.017C451.785 193.01 449.807 187.829 447.651 182.472C445.499 177.123 443.229 171.738 440.841 166.318C438.452 160.899 436.036 155.922 433.591 151.388H464.33C466.189 155.116 468.284 159.54 470.616 164.659C472.948 169.779 475.279 175.109 477.611 180.649C479.943 186.182 482.155 191.625 484.247 196.978C486.339 202.331 488.144 207.104 489.663 211.298L458.219 211.288Z" fill="white"/>
<path d="M622.679 69.0437H680.49V87.906H661.633C660.231 93.1406 658.48 98.2754 656.391 103.276H685.557V122.658H531.16V103.276H562.594C561.545 100.611 560.467 97.9326 559.361 95.2411C558.255 92.5496 557.238 90.1046 556.308 87.906H536.397V69.0437H595.257L609.048 82.3847L622.679 69.0437ZM567.501 181.863H543.572V129.993H673.355V181.863H647.872V197.058H691.038L681.045 220.107H619.016V181.863H567.501ZM572.922 162.651H643.83V149.38H572.922V162.651ZM626.536 103.276C627.586 100.717 628.547 98.1275 629.419 95.5059C630.292 92.8844 631.136 90.3511 631.953 87.906H586.198C587.128 90.0046 588.175 92.4213 589.341 95.1562C590.507 97.891 591.555 100.598 592.484 103.276H626.536Z" fill="white"/>
<path d="M624.476 59.3809L609.064 43.9692L593.652 59.3809L609.064 74.7925L624.476 59.3809Z" fill="white"/>
<path d="M598.565 181.433H566.492L538.51 220.197H575.58L598.565 181.433Z" fill="white"/>
</g>
<defs>
<linearGradient id="paint0_linear_5606_26305" x1="241.741" y1="91.5746" x2="40.2955" y2="229.615" gradientUnits="userSpaceOnUse">
<stop stop-color="#F600EC"/>
<stop offset="1" stop-color="#A501DF" stop-opacity="0.69"/>
</linearGradient>
<linearGradient id="paint1_linear_5606_26305" x1="135.2" y1="17.1057" x2="76.0798" y2="244.76" gradientUnits="userSpaceOnUse">
<stop stop-color="#2F42FF"/>
<stop offset="1" stop-color="#000B7B" stop-opacity="0.68"/>
</linearGradient>
<linearGradient id="paint2_linear_5606_26305" x1="74.592" y1="58.993" x2="47.3603" y2="215.888" gradientUnits="userSpaceOnUse">
<stop stop-color="#F9F9F9"/>
<stop offset="1" stop-color="#CDCDCD"/>
</linearGradient>
<clipPath id="clip0_5606_26305">
<rect width="352.763" height="176.881" fill="white" transform="translate(338.415 43.4707)"/>
</clipPath>
</defs>
</svg>
