<svg width="36" height="13" viewBox="0 0 36 13" fill="none" xmlns="http://www.w3.org/2000/svg">
<path d="M8.244 6.544C9.484 8.128 10.42 9.48 11.052 10.6L9.984 11.344C9.864 11.128 9.676 10.804 9.42 10.372C6.54 10.62 3.924 10.808 1.572 10.936L1.368 9.916C2.336 9.404 3.324 8.18 4.332 6.244H0.612V5.02H5.364V3.16H1.356V1.948H5.364V0.171999H6.636V1.948H10.62V3.16H6.636V5.02H11.376V6.244H5.736C5.008 7.748 4.26 8.92 3.492 9.76C5.916 9.592 7.672 9.448 8.76 9.328C8.296 8.632 7.788 7.92 7.236 7.192L8.244 6.544ZM18.384 5.716V6.916H20.136V5.716H18.384ZM18.384 8.08V9.448H20.136V8.08H18.384ZM18.384 10.648V11.188H17.148V4.672C16.828 5.088 16.588 5.396 16.428 5.596L16.236 4.996V6.244C15.804 6.436 15.48 6.576 15.264 6.664V9.844C15.264 10.668 14.84 11.08 13.992 11.08H12.912L12.636 9.868C13.012 9.924 13.32 9.952 13.56 9.952C13.856 9.952 14.004 9.808 14.004 9.52V7.132C13.46 7.316 13.02 7.452 12.684 7.54L12.372 6.268C12.948 6.156 13.492 6.02 14.004 5.86V3.436H12.6V2.224H14.004V0.148H15.264V2.224H16.332V3.436H15.264V5.404C15.6 5.26 15.92 5.112 16.224 4.96L16.008 4.288C16.928 3.056 17.584 1.68 17.976 0.159999L19.2 0.4C19.024 0.992 18.828 1.548 18.612 2.068H20.292C20.092 1.46 19.884 0.915999 19.668 0.435999L20.88 0.111999C21.144 0.864 21.344 1.516 21.48 2.068H23.268V3.268H21.372V4.54H23.028V5.716H21.372V6.916H23.028V8.08H21.372V9.448H23.4V10.648H18.384ZM20.136 3.268H18.384V4.54H20.136V3.268ZM30.564 0.00399923C30.756 0.388 30.936 0.82 31.104 1.3H35.388V2.512H26.64V4.984C26.608 7.616 26.228 9.736 25.5 11.344L24.432 10.396C25.032 9.1 25.344 7.296 25.368 4.984V1.3H29.712C29.544 0.908 29.36 0.556 29.16 0.244L30.564 0.00399923Z" fill="url(#paint0_linear_2942_8766)"/>
<path d="M0 11.752H36V12.856H0V11.752Z" fill="url(#paint1_linear_2942_8766)"/>
<defs>
<linearGradient id="paint0_linear_2942_8766" x1="20.5" y1="-3" x2="20.5" y2="14" gradientUnits="userSpaceOnUse">
<stop offset="0.0001" stop-color="#F59EFF"/>
<stop offset="1" stop-color="#637DFF"/>
</linearGradient>
<linearGradient id="paint1_linear_2942_8766" x1="20.5" y1="-3" x2="20.5" y2="14" gradientUnits="userSpaceOnUse">
<stop offset="0.0001" stop-color="#F59EFF"/>
<stop offset="1" stop-color="#637DFF"/>
</linearGradient>
</defs>
</svg>
