<svg width="24" height="24" viewBox="0 0 24 24" fill="none" xmlns="http://www.w3.org/2000/svg">
<g id="&#230;&#146;&#173;&#230;&#148;&#190;">
<path id="Vector" d="M10.5367 6.18179C10.3924 6.07863 10.2218 6.01674 10.0438 6.00294C9.86586 5.98915 9.68749 6.024 9.52844 6.10363C9.36939 6.18327 9.23585 6.30459 9.14258 6.45417C9.04932 6.60376 8.99998 6.77578 9 6.95121V17.0497C9.00015 17.2251 9.04963 17.397 9.14296 17.5464C9.2363 17.6959 9.36985 17.8171 9.52887 17.8966C9.68789 17.9761 9.86618 18.0109 10.044 17.997C10.2219 17.9832 10.3924 17.9213 10.5367 17.8182L17.6011 12.7689C17.7247 12.6807 17.8252 12.565 17.8945 12.4313C17.9639 12.2976 18 12.1496 18 11.9995C18 11.8494 17.9639 11.7015 17.8945 11.5678C17.8252 11.434 17.7247 11.3183 17.6011 11.2301L10.5367 6.18179Z" fill="url(#paint0_linear_5441_9465)"/>
<circle id="Ellipse 539" cx="12" cy="12" r="11.25" stroke="url(#paint1_linear_5441_9465)" stroke-width="1.5"/>
</g>
<defs>
<linearGradient id="paint0_linear_5441_9465" x1="13.5" y1="6" x2="13.5" y2="18" gradientUnits="userSpaceOnUse">
<stop stop-color="#E4B8FF"/>
<stop offset="1" stop-color="#AFD5FF"/>
</linearGradient>
<linearGradient id="paint1_linear_5441_9465" x1="12" y1="0" x2="12" y2="24" gradientUnits="userSpaceOnUse">
<stop stop-color="#E4B8FF"/>
<stop offset="1" stop-color="#AFD5FF"/>
</linearGradient>
</defs>
</svg>
