<svg width="20" height="20" viewBox="0 0 20 20" fill="none" xmlns="http://www.w3.org/2000/svg">
<path fill-rule="evenodd" clip-rule="evenodd" d="M16.3575 7.88673C16.9493 10.291 16.2071 12.8281 14.4122 14.5332C11.6641 17.1191 7.34968 17.0156 4.73054 14.3008C2.10944 11.5879 2.15632 7.27345 4.83601 4.6172C6.60358 2.88282 9.16608 2.22852 11.5469 2.9043C13.9278 3.58009 15.7657 5.48243 16.3575 7.88673ZM15.0155 15.9067C11.7004 18.7386 6.70815 18.5339 3.63874 15.3555C0.449287 12.0508 0.541084 6.78712 3.84577 3.59571C7.14851 0.406257 12.4122 0.498054 15.6036 3.80274C18.5839 6.88895 18.6992 11.6874 16.0051 14.9073C16.006 14.9082 16.007 14.9092 16.0079 14.9102L18.5587 17.5508C18.8282 17.8301 18.8204 18.2754 18.5411 18.545C18.2618 18.8145 17.8165 18.8067 17.547 18.5274L15.0155 15.9067Z" fill="url(#paint0_linear_2681_14033)"/>
<defs>
<linearGradient id="paint0_linear_2681_14033" x1="10.0307" y1="1.26263" x2="10.0307" y2="18.7421" gradientUnits="userSpaceOnUse">
<stop stop-color="#E4B8FF"/>
<stop offset="1" stop-color="#AFD5FF"/>
</linearGradient>
</defs>
</svg>
