<svg width="22" height="22" viewBox="0 0 22 22" fill="none" xmlns="http://www.w3.org/2000/svg">
<g id="Frame 46438" clip-path="url(#clip0_5418_6587)">
<path id="Vector" d="M11 0C17.0751 0 22 4.92486 22 11C22 17.0751 17.0751 22 11 22C4.92486 22 0 17.0751 0 11C0 4.92486 4.92486 0 11 0ZM11 1.66964C5.84699 1.66964 1.66964 5.84699 1.66964 11C1.66964 16.153 5.84699 20.3304 11 20.3304C16.153 20.3304 20.3304 16.153 20.3304 11C20.3304 5.84699 16.153 1.66964 11 1.66964ZM12.2956 4.8675C12.5983 4.565 13.0886 4.565 13.3913 4.86738L13.3917 4.86784L13.4906 4.96932C16.7205 8.33834 16.7169 13.6621 13.4828 17.0268L13.3828 17.1292L13.3744 17.1378C13.2335 17.2792 13.0405 17.3594 12.8391 17.3594C12.7374 17.3594 12.6367 17.3389 12.5431 17.2992C12.4495 17.2594 12.3649 17.2013 12.2942 17.1281C12.019 16.8353 12.019 16.3806 12.2932 16.0889L12.2955 16.0864L12.3776 16.0029C15.0586 13.2282 15.0589 8.82276 12.3784 6.04781L12.2955 5.9634L12.2866 5.95427C11.9933 5.65088 11.9963 5.1672 12.2956 4.8675ZM9.46376 7.06856C9.75393 6.8105 10.1916 6.8105 10.4818 7.06848L10.4932 7.07875L10.4955 7.0812L10.5576 7.14632C12.5877 9.30833 12.5879 12.6797 10.5583 14.842L10.4927 14.9107L10.4896 14.9134L10.4808 14.9212C10.1895 15.1741 9.75626 15.1741 9.46491 14.9213L9.45182 14.9097L9.44797 14.9055L9.43999 14.8966C9.17947 14.6034 9.18213 14.1597 9.44797 13.8695L9.45121 13.8661L9.49766 13.8187C11.0152 12.2431 11.0154 9.74654 9.49813 8.17079L9.44907 8.1207L9.44704 8.11844L9.43923 8.10958C9.18387 7.81518 9.18647 7.37594 9.44704 7.08454L9.45082 7.08032L9.45499 7.07646L9.46376 7.06856ZM6.51824 10.1592C6.85339 9.82909 7.35465 9.73033 7.79124 9.91012C8.23225 10.0917 8.52009 10.5216 8.52009 10.9986C8.52009 11.4757 8.23225 11.9056 7.79124 12.0872C7.57786 12.1751 7.34335 12.1982 7.11689 12.1538C6.89044 12.1094 6.68205 11.9994 6.51765 11.8375L6.50751 11.8274L6.4971 11.8169C6.28286 11.5984 6.16289 11.3046 6.16295 10.9986C6.16294 10.6921 6.28339 10.3978 6.49832 10.1792L6.50814 10.1693L6.51824 10.1592Z" fill="url(#paint0_linear_5418_6587)"/>
</g>
<defs>
<linearGradient id="paint0_linear_5418_6587" x1="11" y1="0" x2="11" y2="22" gradientUnits="userSpaceOnUse">
<stop stop-color="#E4B8FF"/>
<stop offset="1" stop-color="#AFD5FF"/>
</linearGradient>
<clipPath id="clip0_5418_6587">
<rect width="22" height="22" fill="white"/>
</clipPath>
</defs>
</svg>
