<svg width="18" height="18" viewBox="0 0 18 18" fill="none" xmlns="http://www.w3.org/2000/svg">
<g id="Frame 46438" clip-path="url(#clip0_5418_6682)">
<path id="Vector" d="M9 0C13.9706 0 18 4.02943 18 9C18 13.9706 13.9706 18 9 18C4.02943 18 0 13.9706 0 9C0 4.02943 4.02943 0 9 0ZM9 1.36607C4.7839 1.36607 1.36607 4.7839 1.36607 9C1.36607 13.2161 4.7839 16.6339 9 16.6339C13.2161 16.6339 16.6339 13.2161 16.6339 9C16.6339 4.7839 13.2161 1.36607 9 1.36607ZM10.06 3.9825C10.3077 3.735 10.7089 3.735 10.9565 3.9824L10.9569 3.98278L11.0378 4.06581C13.6804 6.82228 13.6775 11.1781 11.0314 13.9311L10.9496 14.0148L10.9427 14.0218C10.8274 14.1375 10.6695 14.2031 10.5047 14.2031C10.4215 14.2031 10.3392 14.1864 10.2626 14.1539C10.186 14.1213 10.1167 14.0738 10.0589 14.0139C9.83377 13.7743 9.83377 13.4023 10.058 13.1636L10.06 13.1616L10.1271 13.0933C12.3207 10.8231 12.3209 7.21862 10.1278 4.94821L10.06 4.87914L10.0527 4.87167C9.81273 4.62345 9.81518 4.22771 10.06 3.9825ZM7.74307 5.78336C7.98049 5.57223 8.3386 5.57223 8.57604 5.7833L8.58532 5.7917L8.58725 5.79371L8.63807 5.84699C10.2991 7.61591 10.2992 10.3743 8.63859 12.1435L8.58492 12.1997L8.58242 12.2019L8.57523 12.2082C8.33689 12.4152 7.9824 12.4152 7.74402 12.2083L7.73331 12.1988L7.73016 12.1954L7.72363 12.1881C7.51048 11.9482 7.51265 11.5852 7.73016 11.3478L7.73281 11.345L7.77082 11.3062C9.01243 10.0171 9.01258 7.97444 7.7712 6.68519L7.73106 6.64421L7.72939 6.64236L7.723 6.63511C7.51408 6.39424 7.51621 6.03486 7.72939 5.79644L7.73249 5.79299L7.7359 5.78983L7.74307 5.78336ZM5.3331 8.31208C5.60732 8.04198 6.01744 7.96118 6.37465 8.10828C6.73548 8.25686 6.97098 8.60858 6.97098 8.99889C6.97098 9.38923 6.73548 9.74095 6.37465 9.88953C6.20007 9.96142 6.00819 9.98038 5.82291 9.94405C5.63763 9.90772 5.46713 9.8177 5.33262 9.6852L5.32432 9.67695L5.31581 9.66837C5.14053 9.48962 5.04236 9.24924 5.04241 8.99889C5.04241 8.74806 5.14095 8.50727 5.31681 8.32841L5.32485 8.32034L5.3331 8.31208Z" fill="white"/>
</g>
<defs>
<clipPath id="clip0_5418_6682">
<rect width="18" height="18" fill="white"/>
</clipPath>
</defs>
</svg>
