{"asset":{"version":"2.0","generator":"THREE.GLTFExporter"},"scenes":[{"nodes":[0,1,2,3,6,7,8,9,12]}],"scene":0,"nodes":[{"rotation":[0,0.1435028517233629,0,0.9896499035251115],"translation":[0,0.5,0],"mesh":0},{"rotation":[-0.8011345951780408,0,0,0.5984842190140996],"translation":[0,-2.1,0],"mesh":1},{},{"translation":[1.15,0.6,3.2],"extensions":{"KHR_lights_punctual":{"light":0}}},{"rotation":[-0.014970334405162643,0.9814045323581675,-0.0859214874573498,-0.17099278039660223],"mesh":2},{"rotation":[-0.014970334405162643,0.9814045323581675,-0.0859214874573498,-0.17099278039660223],"scale":[1,1,3.4528973341239095],"mesh":3},{"children":[4,5]},{"mesh":4},{},{"translation":[-1.15,0.6,3.2],"extensions":{"KHR_lights_punctual":{"light":1}}},{"rotation":[0.014970334405162643,0.9814045323581675,-0.0859214874573498,0.17099278039660223],"mesh":5},{"rotation":[0.014970334405162643,0.9814045323581675,-0.0859214874573498,0.17099278039660223],"scale":[1,1,3.4528973341239095],"mesh":6},{"children":[10,11]}],"bufferViews":[{"buffer":0,"byteOffset":0,"byteLength":288,"target":34962,"byteStride":12},{"buffer":0,"byteOffset":288,"byteLength":288,"target":34962,"byteStride":12},{"buffer":0,"byteOffset":576,"byteLength":192,"target":34962,"byteStride":8},{"buffer":0,"byteOffset":768,"byteLength":12,"target":34963},{"buffer":0,"byteOffset":780,"byteLength":12,"target":34963},{"buffer":0,"byteOffset":792,"byteLength":12,"target":34963},{"buffer":0,"byteOffset":804,"byteLength":12,"target":34963},{"buffer":0,"byteOffset":816,"byteLength":12,"target":34963},{"buffer":0,"byteOffset":828,"byteLength":12,"target":34963},{"buffer":0,"byteOffset":840,"byteLength":792,"target":34962,"byteStride":12},{"buffer":0,"byteOffset":1632,"byteLength":792,"target":34962,"byteStride":12},{"buffer":0,"byteOffset":2424,"byteLength":528,"target":34962,"byteStride":8},{"buffer":0,"byteOffset":2952,"byteLength":384,"target":34963},{"buffer":0,"byteOffset":3336,"byteLength":60,"target":34962,"byteStride":12},{"buffer":0,"byteOffset":3396,"byteLength":24,"target":34962,"byteStride":12},{"buffer":0,"byteOffset":3420,"byteLength":72,"target":34962,"byteStride":12},{"buffer":0,"byteOffset":3492,"byteLength":72,"target":34962,"byteStride":12},{"buffer":0,"byteOffset":3564,"byteLength":60,"target":34962,"byteStride":12},{"buffer":0,"byteOffset":3624,"byteLength":24,"target":34962,"byteStride":12}],"buffers":[{"byteLength":3648,"uri":"data:application/octet-stream;base64,"}],"accessors":[{"bufferView":0,"componentType":5126,"count":24,"max":[1.5,2,0.05000000074505806],"min":[-1.5,-2,-0.05000000074505806],"type":"VEC3"},{"bufferView":1,"componentType":5126,"count":24,"max":[1,1,1],"min":[-1,-1,-1],"type":"VEC3"},{"bufferView":2,"componentType":5126,"count":24,"max":[1,1],"min":[0,0],"type":"VEC2"},{"bufferView":3,"componentType":5123,"count":6,"max":[3],"min":[0],"type":"SCALAR"},{"bufferView":4,"componentType":5123,"count":6,"max":[7],"min":[4],"type":"SCALAR"},{"bufferView":5,"componentType":5123,"count":6,"max":[11],"min":[8],"type":"SCALAR"},{"bufferView":6,"componentType":5123,"count":6,"max":[15],"min":[12],"type":"SCALAR"},{"bufferView":7,"componentType":5123,"count":6,"max":[19],"min":[16],"type":"SCALAR"},{"bufferView":8,"componentType":5123,"count":6,"max":[23],"min":[20],"type":"SCALAR"},{"bufferView":9,"componentType":5126,"count":66,"max":[2,2,0],"min":[-2,-2,0],"type":"VEC3"},{"bufferView":10,"componentType":5126,"count":66,"max":[0,0,1],"min":[0,0,1],"type":"VEC3"},{"bufferView":11,"componentType":5126,"count":66,"max":[1,1],"min":[0,0],"type":"VEC2"},{"bufferView":12,"componentType":5123,"count":192,"max":[65],"min":[0],"type":"SCALAR"},{"bufferView":13,"componentType":5126,"count":5,"max":[1,1,0],"min":[-1,-1,0],"type":"VEC3"},{"bufferView":14,"componentType":5126,"count":2,"max":[0,0,1],"min":[0,0,0],"type":"VEC3"},{"bufferView":15,"componentType":5126,"count":6,"max":[5,5,5],"min":[0,0,0],"type":"VEC3"},{"bufferView":16,"componentType":5126,"count":6,"max":[1,1,1],"min":[0,0,0],"type":"VEC3"},{"bufferView":17,"componentType":5126,"count":5,"max":[1,1,0],"min":[-1,-1,0],"type":"VEC3"},{"bufferView":18,"componentType":5126,"count":2,"max":[0,0,1],"min":[0,0,0],"type":"VEC3"}],"materials":[{"pbrMetallicRoughness":{"metallicFactor":0.5,"roughnessFactor":0.5,"baseColorTexture":{"index":0,"texCoord":0}}},{"pbrMetallicRoughness":{"metallicFactor":0.5,"roughnessFactor":0.5,"baseColorTexture":{"index":1,"texCoord":0}}},{"pbrMetallicRoughness":{"metallicFactor":0.5,"roughnessFactor":0.5,"baseColorTexture":{"index":2,"texCoord":0}}},{"pbrMetallicRoughness":{"metallicFactor":0.5,"roughnessFactor":0.5,"baseColorTexture":{"index":3,"texCoord":0}}},{"pbrMetallicRoughness":{"metallicFactor":0.5,"roughnessFactor":0.5,"baseColorTexture":{"index":4,"texCoord":0}}},{"pbrMetallicRoughness":{"metallicFactor":0.5,"roughnessFactor":0.5,"baseColorTexture":{"index":5,"texCoord":0}}},{"pbrMetallicRoughness":{"baseColorFactor":[0.02955683443236377,0.05286064701616472,0.09305896283800832,1],"metallicFactor":0.5,"roughnessFactor":0.5},"doubleSided":true},{"pbrMetallicRoughness":{"baseColorFactor":[0.5394794890033748,0.9215818562755338,0.001214107934117647,1],"metallicFactor":0.5,"roughnessFactor":0.5}},{"pbrMetallicRoughness":{"metallicFactor":0.5,"roughnessFactor":0.5}},{"pbrMetallicRoughness":{"metallicFactor":0.5,"roughnessFactor":0.5}}],"textures":[{"sampler":0,"source":0},{"sampler":1,"source":1},{"sampler":2,"source":2},{"sampler":3,"source":3},{"sampler":4,"source":4},{"sampler":5,"source":5}],"samplers":[{"magFilter":9729,"minFilter":9987,"wrapS":33071,"wrapT":33071},{"magFilter":9729,"minFilter":9987,"wrapS":33071,"wrapT":33071},{"magFilter":9729,"minFilter":9987,"wrapS":33071,"wrapT":33071},{"magFilter":9729,"minFilter":9987,"wrapS":33071,"wrapT":33071},{"magFilter":9729,"minFilter":9987,"wrapS":33071,"wrapT":33071},{"magFilter":9729,"minFilter":9987,"wrapS":33071,"wrapT":33071}],"images":[{"mimeType":"image/png","uri":"data:image/png;base64,"},{"mimeType":"image/png","uri":"data:image/png;base64,"},{"mimeType":"image/png","uri":"data:image/png;base64,"},{"mimeType":"image/png","uri":"data:image/png;base64,"},{"mimeType":"image/png","uri":"data:image/png;base64,"},{"mimeType":"image/png","uri":"data:image/png;base64,"}],"meshes":[{"primitives":[{"mode":4,"attributes":{"POSITION":0,"NORMAL":1,"TEXCOORD_0":2},"indices":3,"material":0},{"mode":4,"attributes":{"POSITION":0,"NORMAL":1,"TEXCOORD_0":2},"indices":4,"material":1},{"mode":4,"attributes":{"POSITION":0,"NORMAL":1,"TEXCOORD_0":2},"indices":5,"material":2},{"mode":4,"attributes":{"POSITION":0,"NORMAL":1,"TEXCOORD_0":2},"indices":6,"material":3},{"mode":4,"attributes":{"POSITION":0,"NORMAL":1,"TEXCOORD_0":2},"indices":7,"material":4},{"mode":4,"attributes":{"POSITION":0,"NORMAL":1,"TEXCOORD_0":2},"indices":8,"material":5}]},{"primitives":[{"mode":4,"attributes":{"POSITION":9,"NORMAL":10,"TEXCOORD_0":11},"indices":12,"material":6}]},{"primitives":[{"mode":3,"attributes":{"POSITION":13},"material":7}]},{"primitives":[{"mode":3,"attributes":{"POSITION":14},"material":7}]},{"primitives":[{"mode":1,"attributes":{"POSITION":15,"COLOR_0":16},"material":8}]},{"primitives":[{"mode":3,"attributes":{"POSITION":17},"material":9}]},{"primitives":[{"mode":3,"attributes":{"POSITION":18},"material":9}]}],"extensions":{"KHR_lights_punctual":{"lights":[{"color":[0.5394794890033748,0.9215818562755338,0.001214107934117647],"intensity":3,"type":"directional"},{"color":[1,1,1],"intensity":0.03,"type":"directional"}]}},"extensionsUsed":["KHR_lights_punctual"]}